<?xml version="1.0"?>
<svg xmlns="http://www.w3.org/2000/svg" height="512px" viewBox="-32 0 464 464.14481" width="512px"><path d="m59.285156 92.40625 13.667969-8.316406 8.324219 13.671875-13.667969 8.320312zm0 0" fill="#08a048"/><path d="m113.960938 59.144531 13.667968-8.316406 8.324219 13.675781-13.667969 8.316406zm0 0" fill="#08a048"/><path d="m86.625 75.78125 13.667969-8.320312 8.320312 13.675781-13.667969 8.316406zm0 0" fill="#08a048"/><path d="m141.304688 42.515625 13.667968-8.320313 8.324219 13.675782-13.667969 8.316406zm0 0" fill="#08a048"/><path d="m8.148438 216.074219h16v16h-16zm0 0" fill="#08a048"/><path d="m8.148438 184.074219h16v16h-16zm0 0" fill="#08a048"/><path d="m8.148438 280.074219h16v16h-16zm0 0" fill="#08a048"/><path d="m8.148438 248.074219h16v16h-16zm0 0" fill="#08a048"/><path d="m84.800781 392.0625 7.875-13.925781 13.925781 7.875-7.875 13.925781zm0 0" fill="#08a048"/><path d="m112.65625 407.808594 7.875-13.925782 13.925781 7.875-7.875 13.925782zm0 0" fill="#08a048"/><path d="m140.503906 423.574219 7.878906-13.929688 13.925782 7.878907-7.875 13.925781zm0 0" fill="#08a048"/><path d="m56.949219 376.300781 7.875-13.925781 13.925781 7.875-7.875 13.925781zm0 0" fill="#08a048"/><path d="m240.949219 415.839844 13.929687-7.875 7.875 13.929687-13.929687 7.875zm0 0" fill="#08a048"/><path d="m296.65625 384.335938 13.929688-7.871094 7.875 13.925781-13.929688 7.875zm0 0" fill="#08a048"/><path d="m324.511719 368.574219 13.925781-7.875 7.875 13.929687-13.925781 7.871094zm0 0" fill="#08a048"/><path d="m268.800781 400.085938 13.929688-7.875 7.871093 13.929687-13.925781 7.875zm0 0" fill="#08a048"/><path d="m256.148438 232.074219c.007812-12.429688-.816407-24.84375-2.472657-37.160157-17.632812 3.460938-35.558593 5.1875-53.527343 5.160157-17.96875.027343-35.894532-1.703125-53.527344-5.160157-3.296875 24.660157-3.296875 49.65625 0 74.316407 35.351562-6.878907 71.703125-6.878907 107.054687 0 1.65625-12.316407 2.480469-24.730469 2.472657-37.15625zm0 0" fill="#08a048"/><path d="m305.394531 159.273438c-.101562-.144532-.191406-.296876-.285156-.433594-.554687-.800782-1.144531-1.550782-1.714844-2.335938-1.023437-1.40625-2.046875-2.816406-3.117187-4.175781-.648438-.800781-1.335938-1.601563-2-2.398437-1.050782-1.265626-2.097656-2.527344-3.199219-3.738282-.738281-.800781-1.496094-1.597656-2.242187-2.398437-1.078126-1.144531-2.160157-2.28125-3.273438-3.367188-.796875-.800781-1.636719-1.601562-2.460938-2.328125-1.113281-1.035156-2.226562-2.066406-3.371093-3.050781-.863281-.75-1.75-1.476563-2.636719-2.207031-1.152344-.945313-2.3125-1.878906-3.488281-2.777344-.929688-.703125-1.863281-1.382812-2.808594-2.0625-1.183594-.855469-2.402344-1.703125-3.609375-2.511719-.976562-.65625-1.949219-1.289062-2.941406-1.902343-1.234375-.78125-2.476563-1.535157-3.730469-2.265626-1.023437-.59375-2.039063-1.167968-3.078125-1.734374-1.265625-.691407-2.554688-1.355469-3.847656-2-1.058594-.53125-2.113282-1.058594-3.203125-1.554688-1.308594-.613281-2.636719-1.191406-4-1.75-1.09375-.464844-2.183594-.929688-3.285157-1.359375-1.351562-.539063-2.722656-1.027344-4.097656-1.503906-1.113281-.394531-2.222656-.800781-3.34375-1.160157-.34375-.105468-.6875-.195312-1.03125-.304687 14.203125 19.417969 23.753906 41.839844 27.917969 65.535156 13.6875-3.433593 26.78125-8.902343 38.847656-16.214843zm0 0" fill="#08a048"/><path d="m251.050781 179.128906c-9.476562-46.375-30.71875-75.054687-50.902343-75.054687-20.183594 0-41.425782 28.679687-50.902344 75.054687 16.761718 3.316406 33.8125 4.972656 50.902344 4.945313 17.089843.027343 34.140624-1.628907 50.902343-4.945313zm0 0" fill="#08a048"/><path d="m102.164062 149.746094c-.726562.871094-1.472656 1.71875-2.175781 2.613281-1.007812 1.273437-1.96875 2.601563-2.929687 3.921875-.628906.855469-1.277344 1.695312-1.886719 2.574219-.09375.128906-.175781.273437-.273437.410156 12.070312 7.316406 25.164062 12.785156 38.851562 16.222656 4.152344-23.6875 13.691406-46.105469 27.878906-65.527343-.335937.101562-.679687.191406-1.023437.304687-1.136719.367187-2.257813.796875-3.378907 1.167969-1.359374.480468-2.71875.957031-4.054687 1.488281-1.121094.4375-2.222656.910156-3.335937 1.375-1.3125.558594-2.617188 1.128906-3.910157 1.726563-1.089843.511718-2.167969 1.050781-3.242187 1.601562-1.269532.640625-2.535156 1.289062-3.785156 1.96875-1.0625.574219-2.101563 1.167969-3.140626 1.773438-1.234374.710937-2.449218 1.445312-3.648437 2.210937-1.023437.636719-2.03125 1.285156-3.03125 1.957031-1.1875.800782-2.355469 1.601563-3.515625 2.449219-.972656.695313-1.941406 1.398437-2.902344 2.128906-1.136718.871094-2.253906 1.773438-3.375 2.6875-.921875.800781-1.847656 1.519531-2.753906 2.304688-1.09375.949219-2.167969 1.941406-3.238281 2.933593-.871094.800782-1.746094 1.601563-2.585938 2.402344-1.0625 1.039063-2.09375 2.128906-3.117187 3.199219-.800782.847656-1.601563 1.679687-2.402344 2.542969-1.039062 1.183594-2.03125 2.375-3.023438 3.5625zm0 0" fill="#08a048"/><path d="m149.246094 285.015625c9.476562 46.375 30.71875 75.058594 50.902344 75.058594 20.183593 0 41.425781-28.683594 50.902343-75.058594-33.613281-6.589844-68.191406-6.589844-101.804687 0zm0 0" fill="#08a048"/><path d="m328.148438 232.074219c.011718-20.601563-4.960938-40.902344-14.496094-59.160157-13.761719 8.382813-28.71875 14.621094-44.359375 18.503907 3.808593 26.96875 3.808593 54.339843 0 81.308593 15.640625 3.894532 30.601562 10.148438 44.359375 18.546876 9.539062-18.273438 14.515625-38.585938 14.496094-59.199219zm0 0" fill="#08a048"/><path d="m72.148438 232.074219c-.019532 20.613281 4.953124 40.925781 14.496093 59.199219 13.761719-8.382813 28.71875-14.625 44.359375-18.503907-3.808594-26.972656-3.808594-54.34375 0-81.3125-15.640625-3.878906-30.597656-10.121093-44.359375-18.503906-9.527343 18.25-14.5 38.53125-14.496093 59.121094zm0 0" fill="#08a048"/><path d="m298.132812 314.402344c.726563-.875 1.472657-1.722656 2.175782-2.617188 1.007812-1.273437 1.96875-2.601562 2.929687-3.921875.628907-.855469 1.277344-1.695312 1.886719-2.574219.09375-.128906.175781-.273437.269531-.410156-12.066406-7.316406-25.160156-12.785156-38.847656-16.222656-4.152344 23.6875-13.691406 46.109375-27.878906 65.527344.335937-.101563.679687-.191406 1.023437-.304688 1.136719-.367187 2.257813-.796875 3.378906-1.167968 1.359376-.480469 2.71875-.957032 4.054688-1.488282 1.121094-.4375 2.222656-.910156 3.335938-1.375 1.3125-.558594 2.617187-1.128906 3.910156-1.726562 1.089844-.511719 2.167968-1.046875 3.242187-1.601563 1.269531-.640625 2.535157-1.289062 3.78125-1.96875 1.066407-.574219 2.105469-1.167969 3.144531-1.773437 1.234376-.714844 2.449219-1.453125 3.648438-2.207032 1.023438-.640624 2.03125-1.289062 3.03125-1.960937 1.1875-.800781 2.355469-1.601563 3.511719-2.449219.976562-.695312 1.945312-1.398437 2.90625-2.128906 1.136719-.871094 2.253906-1.773438 3.375-2.6875.921875-.757812 1.847656-1.519531 2.753906-2.304688 1.09375-.949218 2.167969-1.941406 3.238281-2.933593.871094-.800781 1.746094-1.601563 2.585938-2.402344 1.0625-1.039063 2.09375-2.125 3.117187-3.199219.800781-.847656 1.601563-1.679687 2.402344-2.542968 1.039063-1.183594 2.03125-2.375 3.023437-3.558594zm0 0" fill="#08a048"/><path d="m96.898438 307.648438c1.027343 1.40625 2.050781 2.816406 3.121093 4.175781.648438.800781 1.335938 1.601562 2 2.398437 1.050781 1.265625 2.097657 2.53125 3.199219 3.738282.738281.800781 1.488281 1.597656 2.242188 2.398437 1.078124 1.136719 2.160156 2.28125 3.28125 3.378906.796874.796875 1.597656 1.542969 2.445312 2.308594 1.113281 1.035156 2.234375 2.066406 3.375 3.058594.875.75 1.761719 1.480469 2.640625 2.207031 1.152344.945312 2.3125 1.878906 3.488281 2.777344.929688.703125 1.863282 1.382812 2.808594 2.0625 1.183594.855468 2.398438 1.703125 3.609375 2.511718.976563.65625 1.949219 1.289063 2.941406 1.90625 1.234375.769532 2.476563 1.527344 3.730469 2.261719 1.023438.59375 2.039062 1.167969 3.078125 1.738281 1.265625.6875 2.554687 1.351563 3.847656 2 1.058594.527344 2.113281 1.054688 3.203125 1.550782 1.308594.617187 2.636719 1.191406 4 1.75 1.09375.464844 2.183594.929687 3.285156 1.359375 1.351563.539062 2.722657 1.027343 4.097657 1.507812 1.113281.390625 2.222656.796875 3.34375 1.15625.34375.105469.6875.195313 1.03125.304688-14.203125-19.421875-23.753907-41.84375-27.917969-65.542969-13.6875 3.433594-26.78125 8.902344-38.851562 16.214844.105468.144531.195312.296875.289062.433594.554688.808593 1.144531 1.558593 1.710938 2.34375zm0 0" fill="#08a048"/><path d="m376.148438 216.074219h16v16h-16zm0 0" fill="#08a048"/><path d="m376.148438 184.074219h16v16h-16zm0 0" fill="#08a048"/><path d="m376.148438 280.074219h16v16h-16zm0 0" fill="#08a048"/><path d="m376.148438 248.074219h16v16h-16zm0 0" fill="#08a048"/><path d="m298.046875 85.003906 8.320313-13.671875 13.667968 8.316407-8.320312 13.675781zm0 0" fill="#08a048"/><path d="m325.382812 101.640625 8.324219-13.675781 13.667969 8.320312-8.320312 13.671875zm0 0" fill="#08a048"/><path d="m270.710938 68.363281 8.320312-13.675781 13.667969 8.320312-8.320313 13.671876zm0 0" fill="#08a048"/><path d="m243.371094 51.734375 8.320312-13.671875 13.671875 8.316406-8.324219 13.675782zm0 0" fill="#08a048"/><path d="m208.148438 88.328125v-58.472656c6.269531-3.621094 9.328124-11 7.453124-17.996094-1.871093-6.996094-8.210937-11.859375-15.453124-11.859375-7.242188 0-13.582032 4.863281-15.453126 11.859375-1.875 6.996094 1.179688 14.375 7.453126 17.996094v58.472656c2.65625-.144531 5.320312-.253906 8-.253906 2.679687 0 5.34375.109375 8 .253906zm0 0" fill="#08a048"/><path d="m79.699219 153.296875-47.800781-27.625c-1.097657-7.105469-6.820313-12.597656-13.964844-13.402344-7.148438-.808593-13.949219 3.269531-16.605469 9.953125s-.511719 14.316406 5.238281 18.636719 13.679688 4.257813 19.359375-.15625l45.734375 26.402344c1.710938-3.367188 3.519532-6.703125 5.496094-9.945313.816406-1.3125 1.695312-2.566406 2.542969-3.863281zm0 0" fill="#08a048"/><path d="m71.796875 297.289062-50.359375 31.75c-6.808594-2.421874-14.398438.019532-18.515625 5.960938s-3.742187 13.902344.917969 19.425781c4.65625 5.527344 12.441406 7.242188 18.992187 4.191407 6.550781-3.054688 10.242188-10.121094 9.003907-17.242188l48-30.269531c-.910157-1.386719-1.847657-2.738281-2.71875-4.160157-1.890626-3.152343-3.65625-6.386718-5.320313-9.65625zm0 0" fill="#08a048"/><path d="m192.148438 375.816406v58.472656c-6.273438 3.621094-9.328126 11-7.453126 17.996094 1.871094 6.996094 8.210938 11.859375 15.453126 11.859375 7.242187 0 13.582031-4.863281 15.453124-11.859375 1.875-6.996094-1.183593-14.375-7.453124-17.996094v-58.472656c-2.65625.144532-5.320313.257813-8 .257813-2.679688 0-5.34375-.113281-8-.257813zm0 0" fill="#08a048"/><path d="m392.148438 330.214844c-4.042969-2.320313-8.902344-2.746094-13.289063-1.167969l-50.398437-31.757813c-1.664063 3.28125-3.433594 6.519532-5.359376 9.671876-.863281 1.414062-1.808593 2.765624-2.714843 4.144531l48 30.269531c-1.367188 7.996094 3.460937 15.75 11.234375 18.046875 7.777344 2.300781 16.046875-1.582031 19.242187-9.035156 3.195313-7.453125.3125-16.121094-6.714843-20.171875zm0 0" fill="#08a048"/><path d="m328.636719 167.128906 45.734375-26.402344c5.714844 4.484376 13.730468 4.578126 19.546875.226563 5.816406-4.351563 7.992187-12.0625 5.308593-18.8125-2.6875-6.746094-9.5625-10.859375-16.78125-10.023437-7.214843.832031-12.972656 6.402343-14.050781 13.585937l-47.796875 27.601563c.847656 1.296874 1.734375 2.566406 2.550782 3.902343 1.976562 3.226563 3.777343 6.554688 5.488281 9.921875zm0 0" fill="#08a048"/></svg>
